<svg width="182" height="50" viewBox="0 0 182 50" fill="none" xmlns="http://www.w3.org/2000/svg">
<path fill-rule="evenodd" clip-rule="evenodd" d="M39.3417 0H34.3313V14.4308L39.3417 13.0416V0ZM29.1843 2.33008V15.8561L28.9561 15.9201L24.1738 17.2544V2.33008H29.1843ZM20.0397 5.05371H15.0293V19.7952L20.0397 18.3969V5.05371ZM10.8217 8.32568V20.9561L10.5935 21.02L5.82033 22.3544V8.32568H10.8217ZM35.9105 16.0672L39.3421 14.5136L42.7094 12.9875L42.7086 12.988L39.3423 14.5958L36.2484 16.0672L11.9445 27.6283L15.011 36.6487L16.6994 28.6519L37.6083 16.0672L39.3423 15.0162L42.7045 12.9906L39.342 15.1533L37.9274 16.0672L17.9677 28.9078L29.9051 36.9137L42.7095 12.9876L42.7095 12.9875L42.7097 12.9873L39.3421 13.9286L34.3316 15.3178L29.1842 16.7435L24.1738 18.1418L20.0395 19.2842L15.029 20.6825L10.8217 21.8432L5.81122 23.2415L1.5035 24.4387L11.3328 27.1805L35.9105 16.0672ZM21.1438 32.015L15.7866 36.8223L17.7122 29.3281L21.1438 32.015ZM44.644 34.1532L46.159 33.5957L45.7483 35.1494C45.7301 35.2042 44.3976 40.249 45.1642 43.4843L43.5306 43.8682C43.0651 41.885 43.2568 39.4265 43.5489 37.553C41.8878 39.5727 38.5566 43.1644 33.9204 45.9885C29.9595 48.4103 25.8617 49.7447 21.7456 49.964C20.8238 50.0188 19.902 50.0097 18.9803 49.9457C14.7547 49.6624 10.5382 48.2001 6.40391 45.5863L7.29831 44.1698C15.8681 49.5893 24.5109 49.7355 32.9986 44.5902C37.4797 41.8758 40.747 38.3115 42.3168 36.4014C38.8943 36.8675 35.1159 36.5751 34.906 36.5568L35.0429 34.8843C35.1068 34.8935 41.3037 35.3778 44.644 34.1532ZM5.45529 48.5196C4.89857 48.4099 4.36923 48.2088 3.88553 47.9255C3.41095 47.6331 2.97288 47.2766 2.61694 46.8471C2.26101 46.4175 1.97808 45.9332 1.78643 45.4214C1.58564 44.9096 1.49438 44.3521 1.48525 43.8037C1.47612 43.2554 1.55826 42.707 1.73167 42.1861C1.90507 41.6652 2.16974 41.1808 2.50742 40.7421C2.8451 40.3126 3.2558 39.9379 3.72125 39.6363C4.17757 39.3347 4.69779 39.1336 5.22713 39.0056C5.76559 38.8777 6.32231 38.8503 6.8699 38.9143C7.14369 38.9417 7.41749 39.0056 7.68216 39.0788C7.94683 39.1519 8.2115 39.2524 8.45792 39.3712C9.45271 39.8556 10.2923 40.6964 10.7669 41.72C10.8856 41.9759 10.986 42.2409 11.0681 42.5151C11.1411 42.7893 11.1959 43.0726 11.2233 43.3559C11.2871 43.9225 11.2506 44.5075 11.1137 45.0741C11.2141 44.7999 11.278 44.5166 11.3236 44.2241C11.3693 43.9317 11.3875 43.6392 11.3784 43.3468C11.3693 42.7527 11.2415 42.1587 11.0225 41.6103C10.8034 41.0528 10.484 40.5319 10.0824 40.0841C9.68087 39.6363 9.19716 39.2524 8.6587 38.9691C7.59089 38.3933 6.30406 38.2197 5.10848 38.4664C3.90378 38.7223 2.8086 39.4169 2.0511 40.3765C1.67691 40.8609 1.38486 41.4184 1.1932 41.9942C1.10194 42.2866 1.02892 42.5882 0.983291 42.8898C0.937659 43.1914 0.919406 43.5021 0.937659 43.8037C0.965038 44.4161 1.08368 45.0284 1.32097 45.595C1.54914 46.1616 1.87769 46.6826 2.28839 47.1395C2.69908 47.5874 3.18279 47.9712 3.71212 48.2545C4.24146 48.5378 4.82556 48.7206 5.41878 48.8029C6.60523 48.9674 7.82819 48.6932 8.80472 48.0443C7.75517 48.5744 6.5596 48.748 5.45529 48.5196ZM4.44224 41.5926C4.24145 41.7662 4.05892 41.9764 3.9129 42.2049C3.75775 42.4334 3.65736 42.6893 3.55696 42.9817C3.47482 43.2468 3.44745 43.521 3.43832 43.7951C3.44745 44.0693 3.47482 44.3435 3.55696 44.6085C3.6391 44.8736 3.75775 45.1294 3.90377 45.3671C4.05892 45.5956 4.25058 45.8149 4.46049 46.0068C4.6704 46.1987 4.91681 46.3541 5.18148 46.4821L5.38227 46.5643L5.43703 46.5826L5.49179 46.6009L5.6013 46.6374C5.69865 46.674 5.79599 46.6943 5.89333 46.7146C5.94202 46.7247 5.9907 46.7349 6.03938 46.7471C5.7382 46.7471 5.43703 46.7105 5.13585 46.6283C4.8438 46.5369 4.56088 46.3998 4.29621 46.2262C4.03154 46.0434 3.80338 45.824 3.6026 45.5773C3.41094 45.3305 3.25579 45.0472 3.13714 44.7456C3.0185 44.444 2.95461 44.1241 2.93636 43.7951C2.91811 43.4753 2.95461 43.1462 3.02763 42.8264C3.11889 42.5065 3.23753 42.2049 3.41094 41.9216C3.58434 41.6474 3.79425 41.3915 4.04067 41.1722C4.29621 40.9528 4.57001 40.7792 4.87118 40.6421C5.17236 40.5142 5.49179 40.4319 5.82034 40.3862C6.14889 40.3496 6.47745 40.3679 6.79688 40.4228C7.11631 40.4867 7.42661 40.5873 7.70953 40.7426C7.99245 40.898 8.25712 41.0899 8.47616 41.3184C8.6952 41.5469 8.87773 41.8028 9.02375 42.0861C9.16065 42.3694 9.25191 42.671 9.30667 42.9726C9.35231 43.2833 9.34318 43.5849 9.29755 43.8865C9.29579 43.8567 9.29438 43.8271 9.29297 43.7979C9.28707 43.6749 9.2814 43.5568 9.25192 43.4387L9.23366 43.329L9.22453 43.2742L9.20628 43.2194L9.15152 43.0092C9.06026 42.735 8.93249 42.4699 8.77734 42.2323C8.61306 41.9947 8.4214 41.7754 8.21149 41.5926C8.00158 41.4098 7.76429 41.2636 7.50875 41.1448L7.31709 41.0716L7.27146 41.0534L7.22583 41.0351L7.12543 41.0077L7.02504 40.9803C7.00679 40.9757 6.99082 40.9734 6.97485 40.9711C6.95887 40.9688 6.9429 40.9665 6.92465 40.962C6.89272 40.9574 6.8585 40.9506 6.82429 40.9437C6.79005 40.9368 6.75582 40.93 6.72387 40.9254C6.45007 40.8889 6.17628 40.8889 5.90248 40.9254C5.63781 40.9711 5.37314 41.0442 5.12673 41.1539C4.88031 41.2636 4.65215 41.4189 4.44224 41.5926Z" fill="url(#paint0_linear_5702_222)"/>
<path d="M58.7411 17.9759C57.7801 18.8076 57.3056 20.0432 57.3056 21.6709V23.5481H66.8563V26.9935H57.3056V35.4051H53.2361V21.6709C53.2361 19.0215 54.0903 16.9304 55.7869 15.4216C57.4835 13.9127 59.8327 13.1523 62.8106 13.1523C64.0682 13.1523 65.2309 13.283 66.3106 13.5563C67.3902 13.8295 68.3394 14.2216 69.158 14.7444L67.8767 18.071C66.5835 17.1681 64.958 16.7285 63.0004 16.7285C61.1259 16.7285 59.7021 17.1443 58.7411 17.9759Z" fill="white"/>
<path d="M86.9067 18.6644V35.4044H83.1931V33.2659C82.5643 34.0144 81.7813 34.5965 80.844 35.0005C79.9067 35.4044 78.8982 35.6064 77.8067 35.6064C75.5762 35.6064 73.8203 34.9886 72.539 33.7411C71.2576 32.4936 70.6169 30.6521 70.6169 28.2047V18.6406H74.5322V27.67C74.5322 29.1789 74.8762 30.2957 75.5525 31.0442C76.2288 31.7808 77.2016 32.161 78.4474 32.161C79.8474 32.161 80.9508 31.7333 81.7813 30.866C82.5999 29.9987 83.0152 28.7512 83.0152 27.1235V18.6644H86.9067Z" fill="white"/>
<path d="M105.972 20.328C107.242 21.5636 107.882 23.3933 107.882 25.8169V35.4048H103.967V26.3159C103.967 24.8546 103.623 23.7497 102.935 23.0131C102.247 22.2765 101.262 21.8963 99.9925 21.8963C98.5569 21.8963 97.4179 22.3359 96.5756 23.1913C95.7451 24.0586 95.3179 25.3061 95.3179 26.9337V35.4048H91.4027V18.6647H95.1281V20.827C95.7688 20.0548 96.5874 19.4726 97.5722 19.0686C98.5569 18.6766 99.6603 18.4746 100.894 18.4746C103.006 18.4746 104.703 19.0924 105.972 20.328Z" fill="white"/>
<path d="M126.783 20.328C128.052 21.5636 128.693 23.3933 128.693 25.8169V35.4048H124.778V26.3159C124.778 24.8546 124.434 23.7497 123.746 23.0131C123.057 22.2765 122.073 21.8963 120.803 21.8963C119.368 21.8963 118.229 22.3359 117.386 23.1913C116.556 24.0586 116.129 25.3061 116.129 26.9337V35.4048H112.214V18.6647H115.939V20.827C116.58 20.0548 117.398 19.4726 118.383 19.0686C119.368 18.6766 120.471 18.4746 121.705 18.4746C123.817 18.4746 125.513 19.0924 126.783 20.328Z" fill="white"/>
<path d="M162.993 18.4746V22.2052C162.66 22.1458 162.352 22.1101 162.091 22.1101C160.572 22.1101 159.374 22.5497 158.52 23.4408C157.665 24.3318 157.238 25.6031 157.238 27.2783V35.4048H153.323V18.6647H157.049V21.1122C158.176 19.3538 160.157 18.4746 162.993 18.4746Z" fill="white"/>
<path d="M168.473 34.5254C167.121 33.7888 166.053 32.7789 165.293 31.4721C164.534 30.1652 164.154 28.6919 164.154 27.0405C164.154 25.3891 164.534 23.9159 165.293 22.6209C166.053 21.3258 167.109 20.316 168.473 19.5794C169.826 18.8428 171.356 18.4863 173.041 18.4863C174.749 18.4863 176.28 18.8546 177.644 19.5794C178.997 20.316 180.065 21.3258 180.824 22.6209C181.583 23.9159 181.963 25.3891 181.963 27.0405C181.963 28.6919 181.583 30.1652 180.824 31.4721C180.065 32.7789 179.009 33.8007 177.644 34.5254C176.292 35.262 174.749 35.6185 173.041 35.6185C171.356 35.6185 169.826 35.2501 168.473 34.5254ZM176.612 30.8305C177.549 29.8681 178.024 28.6088 178.024 27.0405C178.024 25.4722 177.549 24.2129 176.612 23.2505C175.675 22.2882 174.488 21.813 173.041 21.813C171.593 21.813 170.419 22.2882 169.493 23.2505C168.568 24.2129 168.105 25.4722 168.105 27.0405C168.105 28.6088 168.568 29.8681 169.493 30.8305C170.419 31.7928 171.605 32.2681 173.041 32.2681C174.476 32.2681 175.675 31.7928 176.612 30.8305Z" fill="white"/>
<path d="M140.497 46.787C135.87 46.787 132.074 43.2346 131.741 38.6367H135.823C136.143 40.9416 138.148 42.7237 140.509 42.7237C142.894 42.7237 144.875 40.9772 145.196 38.6367H149.265C148.921 43.2227 145.124 46.787 140.497 46.787Z" fill="url(#paint1_linear_5702_222)"/>
<path d="M140.498 36.4388C135.657 36.4388 131.718 32.4944 131.718 27.647C131.718 22.7996 135.657 18.8552 140.498 18.8552C141.803 18.8552 143.084 19.1522 144.282 19.7225L144.448 19.8057L146.572 17.2988L149.182 19.5205L147.154 21.9205L147.284 22.0749C148.565 23.6432 149.277 25.6273 149.277 27.647C149.277 32.4944 145.338 36.4388 140.498 36.4388ZM140.498 22.9185C137.887 22.9185 135.776 25.0451 135.776 27.647C135.776 30.2608 137.899 32.3875 140.498 32.3875C143.108 32.3875 145.22 30.2608 145.22 27.647C145.22 25.0332 143.108 22.9185 140.498 22.9185Z" fill="white"/>
<defs>
<linearGradient id="paint0_linear_5702_222" x1="-12.557" y1="17.2013" x2="16.8859" y2="58.5631" gradientUnits="userSpaceOnUse">
<stop stop-color="#DEFEBB"/>
<stop offset="1" stop-color="#07AB67"/>
</linearGradient>
<linearGradient id="paint1_linear_5702_222" x1="140.731" y1="30.0836" x2="140.284" y2="46.6257" gradientUnits="userSpaceOnUse">
<stop offset="0.1286" stop-color="#DEFEBB"/>
<stop offset="1" stop-color="#07AB67"/>
</linearGradient>
</defs>
</svg>
